<?xml version="1.0" encoding="UTF-8" standalone="no"?>
<!DOCTYPE svg PUBLIC "-//W3C//DTD SVG 1.1//EN"
 "http://www.w3.org/Graphics/SVG/1.1/DTD/svg11.dtd">
<!-- Generated by graphviz version 2.43.0 (0)
 -->
<!-- Title: VisionLockPipeline Pages: 1 -->
<svg width="2370pt" height="1540pt"
 viewBox="0.00 0.00 2370.12 1540.00" xmlns="http://www.w3.org/2000/svg" xmlns:xlink="http://www.w3.org/1999/xlink">
<g id="graph0" class="graph" transform="scale(1 1) rotate(0) translate(4 1536)">
<title>VisionLockPipeline</title>
<polygon fill="#0b0f17" stroke="transparent" points="-4,4 -4,-1536 2366.12,-1536 2366.12,4 -4,4"/>
<text text-anchor="middle" x="1181.06" y="-1508.8" font-family="DejaVu Sans" font-size="24.00" fill="#e5ecf5">RTR · VisionLock Console — Pipeline xử lý từng frame &#160;(lõi _update_tracking · Memory · Re&#45;acquire)</text>
<g id="clust1" class="cluster">
<title>cluster_core</title>
<path fill="#0a1a18" stroke="#0f3d3a" stroke-width="2" d="M602,-717C602,-717 1067,-717 1067,-717 1073,-717 1079,-723 1079,-729 1079,-729 1079,-1286 1079,-1286 1079,-1292 1073,-1298 1067,-1298 1067,-1298 602,-1298 602,-1298 596,-1298 590,-1292 590,-1286 590,-1286 590,-729 590,-729 590,-723 596,-717 602,-717"/>
<text text-anchor="middle" x="834.5" y="-1282.8" font-family="DejaVu Sans" font-size="14.00" fill="#7fffe6">LÕI THEO DÕI &#160;· &#160;_update_tracking(frame) &#160;&#160;(mỗi frame, theo thứ tự)</text>
</g>
<g id="clust3" class="cluster">
<title>cluster_mem</title>
<path fill="#0c1b16" stroke="#1d4a36" stroke-width="2" d="M1667,-103.75C1667,-103.75 2275,-103.75 2275,-103.75 2281,-103.75 2287,-109.75 2287,-115.75 2287,-115.75 2287,-677 2287,-677 2287,-683 2281,-689 2275,-689 2275,-689 1667,-689 1667,-689 1661,-689 1655,-683 1655,-677 1655,-677 1655,-115.75 1655,-115.75 1655,-109.75 1661,-103.75 1667,-103.75"/>
<text text-anchor="middle" x="1971" y="-674.6" font-family="DejaVu Sans" font-size="13.00" fill="#a0e6c0">MEMORY BANK &#160;· &#160;vision/memory.py + encoders.py &#160;&#160;(cập nhật khi STABLE — cổng SAMURAI)</text>
</g>
<g id="clust2" class="cluster">
<title>cluster_fsm</title>
<path fill="#0d1422" stroke="#2a3f63" stroke-width="2" d="M229,-598.75C229,-598.75 918,-598.75 918,-598.75 924,-598.75 930,-604.75 930,-610.75 930,-610.75 930,-668.75 930,-668.75 930,-674.75 924,-680.75 918,-680.75 918,-680.75 229,-680.75 229,-680.75 223,-680.75 217,-674.75 217,-668.75 217,-668.75 217,-610.75 217,-610.75 217,-604.75 223,-598.75 229,-598.75"/>
<text text-anchor="middle" x="573.5" y="-666.35" font-family="DejaVu Sans" font-size="13.00" fill="#cfe3ff">⑧ FSM tin cậy &#160;· &#160;policy.py · confidence.update(score, ok, identity_lost)</text>
</g>
<g id="clust4" class="cluster">
<title>cluster_reacq</title>
<path fill="#150c0d" stroke="#5a2326" stroke-width="2" d="M20,-8C20,-8 557,-8 557,-8 563,-8 569,-14 569,-20 569,-20 569,-550.5 569,-550.5 569,-556.5 563,-562.5 557,-562.5 557,-562.5 20,-562.5 20,-562.5 14,-562.5 8,-556.5 8,-550.5 8,-550.5 8,-20 8,-20 8,-14 14,-8 20,-8"/>
<text text-anchor="middle" x="288.5" y="-548.1" font-family="DejaVu Sans" font-size="13.00" fill="#ff9aa2">RE&#45;ACQUIRE &#160;· &#160;reacquire.py + reacquire_controller.py &#160;&#160;(_run_reacquire khi LOST)</text>
</g>
<!-- in -->
<g id="node1" class="node">
<title>in</title>
<path fill="#16314f" stroke="#3a4a63" stroke-width="1.3" d="M1010.6,-1498C1010.6,-1498 729.81,-1498 729.81,-1498 723.81,-1498 713.16,-1494.21 708.51,-1490.41 708.51,-1490.41 648.7,-1441.59 648.7,-1441.59 644.05,-1437.79 645.4,-1434 651.4,-1434 651.4,-1434 932.19,-1434 932.19,-1434 938.19,-1434 948.84,-1437.79 953.49,-1441.59 953.49,-1441.59 1013.3,-1490.41 1013.3,-1490.41 1017.95,-1494.21 1016.6,-1498 1010.6,-1498"/>
<text text-anchor="middle" x="831" y="-1469.6" font-family="DejaVu Sans" font-size="10.50" fill="#bfe0ff">Frame T &#160;(camera.read())</text>
<text text-anchor="middle" x="831" y="-1457.6" font-family="DejaVu Sans" font-size="10.50" fill="#bfe0ff">giữ frame mới nhất, thread&#45;safe</text>
</g>
<!-- tier -->
<g id="node2" class="node">
<title>tier</title>
<path fill="#1b2740" stroke="#3a4a63" stroke-width="1.3" d="M819.1,-1395.44C819.1,-1395.44 569.09,-1362.56 569.09,-1362.56 563.14,-1361.78 563.14,-1360.22 569.09,-1359.44 569.09,-1359.44 819.1,-1326.56 819.1,-1326.56 825.05,-1325.78 836.95,-1325.78 842.9,-1326.56 842.9,-1326.56 1092.91,-1359.44 1092.91,-1359.44 1098.86,-1360.22 1098.86,-1361.78 1092.91,-1362.56 1092.91,-1362.56 842.9,-1395.44 842.9,-1395.44 836.95,-1396.22 825.05,-1396.22 819.1,-1395.44"/>
<text text-anchor="middle" x="831" y="-1364.6" font-family="DejaVu Sans" font-size="10.50" fill="#cfe3ff">Chọn Tier theo ConfidenceManager</text>
<text text-anchor="middle" x="831" y="-1352.6" font-family="DejaVu Sans" font-size="10.50" fill="#cfe3ff">NORMAL → tracker (Tier A) &#160;&#160;· &#160;&#160;REFIND → refind_tracker (Tier B)</text>
</g>
<!-- in&#45;&gt;tier -->
<g id="edge7" class="edge">
<title>in&#45;&gt;tier</title>
<path fill="none" stroke="#5b7089" stroke-width="1.3" d="M831,-1433.82C831,-1424.48 831,-1414.08 831,-1404.16"/>
<polygon fill="#5b7089" stroke="#5b7089" stroke-width="1.3" points="833.45,-1404.04 831,-1397.04 828.55,-1404.04 833.45,-1404.04"/>
</g>
<!-- p1 -->
<g id="node3" class="node">
<title>p1</title>
<path fill="#13243b" stroke="#3a4a63" stroke-width="1.3" d="M969.5,-1267C969.5,-1267 692.5,-1267 692.5,-1267 686.5,-1267 680.5,-1261 680.5,-1255 680.5,-1255 680.5,-1235 680.5,-1235 680.5,-1229 686.5,-1223 692.5,-1223 692.5,-1223 969.5,-1223 969.5,-1223 975.5,-1223 981.5,-1229 981.5,-1235 981.5,-1235 981.5,-1255 981.5,-1255 981.5,-1261 975.5,-1267 969.5,-1267"/>
<text text-anchor="middle" x="831" y="-1254.6" font-family="DejaVu Sans" font-size="10.50" fill="#e5ecf5">① Ước lượng chuyển động camera (ego&#45;motion)</text>
<text text-anchor="middle" x="831" y="-1242.6" font-family="DejaVu Sans" font-size="10.50" fill="#e5ecf5">flow.py · goodFeaturesToTrack → calcOpticalFlowPyrLK</text>
<text text-anchor="middle" x="831" y="-1230.6" font-family="DejaVu Sans" font-size="10.50" fill="#e5ecf5">→ RANSAC affine → CameraMotion(tx,ty,scale,inlier)</text>
</g>
<!-- tier&#45;&gt;p1 -->
<g id="edge8" class="edge">
<title>tier&#45;&gt;p1</title>
<path fill="none" stroke="#5b7089" stroke-width="1.3" d="M831,-1324.87C831,-1318.62 831,-1311.96 831,-1305.27"/>
<polygon fill="#5b7089" stroke="#5b7089" stroke-width="1.3" points="833.45,-1305 831,-1298 828.55,-1305 833.45,-1305"/>
</g>
<!-- p2 -->
<g id="node4" class="node">
<title>p2</title>
<path fill="#13243b" stroke="#3a4a63" stroke-width="1.3" d="M948.5,-1186C948.5,-1186 713.5,-1186 713.5,-1186 707.5,-1186 701.5,-1180 701.5,-1174 701.5,-1174 701.5,-1154 701.5,-1154 701.5,-1148 707.5,-1142 713.5,-1142 713.5,-1142 948.5,-1142 948.5,-1142 954.5,-1142 960.5,-1148 960.5,-1154 960.5,-1154 960.5,-1174 960.5,-1174 960.5,-1180 954.5,-1186 948.5,-1186"/>
<text text-anchor="middle" x="831" y="-1173.6" font-family="DejaVu Sans" font-size="10.50" fill="#e5ecf5">② Tracker.track(frame)</text>
<text text-anchor="middle" x="831" y="-1161.6" font-family="DejaVu Sans" font-size="10.50" fill="#e5ecf5">UETrack / EVPTrack / SAM2 / OpenCV(fallback)</text>
<text text-anchor="middle" x="831" y="-1149.6" font-family="DejaVu Sans" font-size="10.50" fill="#e5ecf5">→ TrackResult(ok, bbox, affinity, mask)</text>
</g>
<!-- p1&#45;&gt;p2 -->
<g id="edge1" class="edge">
<title>p1&#45;&gt;p2</title>
<path fill="none" stroke="#5b7089" stroke-width="1.3" d="M831,-1222.83C831,-1213.8 831,-1203.12 831,-1193.42"/>
<polygon fill="#5b7089" stroke="#5b7089" stroke-width="1.3" points="833.45,-1193.23 831,-1186.23 828.55,-1193.23 833.45,-1193.23"/>
</g>
<!-- p3 -->
<g id="node5" class="node">
<title>p3</title>
<path fill="#13243b" stroke="#3a4a63" stroke-width="1.3" d="M971,-1105C971,-1105 691,-1105 691,-1105 685,-1105 679,-1099 679,-1093 679,-1093 679,-1073 679,-1073 679,-1067 685,-1061 691,-1061 691,-1061 971,-1061 971,-1061 977,-1061 983,-1067 983,-1073 983,-1073 983,-1093 983,-1093 983,-1099 977,-1105 971,-1105"/>
<text text-anchor="middle" x="831" y="-1092.6" font-family="DejaVu Sans" font-size="10.50" fill="#e5ecf5">③ EKF cập nhật + dự đoán &#160;(ekf.py)</text>
<text text-anchor="middle" x="831" y="-1080.6" font-family="DejaVu Sans" font-size="10.50" fill="#e5ecf5">state=[cx,cy,vx,vy,w,h] · predict cộng ego(tx,ty)</text>
<text text-anchor="middle" x="831" y="-1068.6" font-family="DejaVu Sans" font-size="10.50" fill="#e5ecf5">→ error, motion_consistency · kalman_bbox (frame kế)</text>
</g>
<!-- p2&#45;&gt;p3 -->
<g id="edge2" class="edge">
<title>p2&#45;&gt;p3</title>
<path fill="none" stroke="#5b7089" stroke-width="1.3" d="M831,-1141.83C831,-1132.8 831,-1122.12 831,-1112.42"/>
<polygon fill="#5b7089" stroke="#5b7089" stroke-width="1.3" points="833.45,-1112.23 831,-1105.23 828.55,-1112.23 833.45,-1112.23"/>
</g>
<!-- p4 -->
<g id="node6" class="node">
<title>p4</title>
<path fill="#13243b" stroke="#3a4a63" stroke-width="1.3" d="M953.5,-1024C953.5,-1024 708.5,-1024 708.5,-1024 702.5,-1024 696.5,-1018 696.5,-1012 696.5,-1012 696.5,-992 696.5,-992 696.5,-986 702.5,-980 708.5,-980 708.5,-980 953.5,-980 953.5,-980 959.5,-980 965.5,-986 965.5,-992 965.5,-992 965.5,-1012 965.5,-1012 965.5,-1018 959.5,-1024 953.5,-1024"/>
<text text-anchor="middle" x="831" y="-1011.6" font-family="DejaVu Sans" font-size="10.50" fill="#e5ecf5">④ Chấm điểm danh tính &#160;(memory.score)</text>
<text text-anchor="middle" x="831" y="-999.6" font-family="DejaVu Sans" font-size="10.50" fill="#e5ecf5">encode crop → cosine sim với RAM+WRM+DRM</text>
<text text-anchor="middle" x="831" y="-987.6" font-family="DejaVu Sans" font-size="10.50" fill="#e5ecf5">→ identity_score · negative_margin</text>
</g>
<!-- p3&#45;&gt;p4 -->
<g id="edge3" class="edge">
<title>p3&#45;&gt;p4</title>
<path fill="none" stroke="#5b7089" stroke-width="1.3" d="M831,-1060.83C831,-1051.8 831,-1041.12 831,-1031.42"/>
<polygon fill="#5b7089" stroke="#5b7089" stroke-width="1.3" points="833.45,-1031.23 831,-1024.23 828.55,-1031.23 833.45,-1031.23"/>
</g>
<!-- p5 -->
<g id="node7" class="node">
<title>p5</title>
<path fill="#13243b" stroke="#3a4a63" stroke-width="1.3" d="M924,-943C924,-943 738,-943 738,-943 732,-943 726,-937 726,-931 726,-931 726,-911 726,-911 726,-905 732,-899 738,-899 738,-899 924,-899 924,-899 930,-899 936,-905 936,-911 936,-911 936,-931 936,-931 936,-937 930,-943 924,-943"/>
<text text-anchor="middle" x="831" y="-930.6" font-family="DejaVu Sans" font-size="10.50" fill="#e5ecf5">⑤ Ước lượng confidence của tracker</text>
<text text-anchor="middle" x="831" y="-918.6" font-family="DejaVu Sans" font-size="10.50" fill="#e5ecf5">deep: 0.5·stability+0.5·affinity</text>
<text text-anchor="middle" x="831" y="-906.6" font-family="DejaVu Sans" font-size="10.50" fill="#e5ecf5">fallback OpenCV: cap ≤ 0.75</text>
</g>
<!-- p4&#45;&gt;p5 -->
<g id="edge4" class="edge">
<title>p4&#45;&gt;p5</title>
<path fill="none" stroke="#5b7089" stroke-width="1.3" d="M831,-979.83C831,-970.8 831,-960.12 831,-950.42"/>
<polygon fill="#5b7089" stroke="#5b7089" stroke-width="1.3" points="833.45,-950.23 831,-943.23 828.55,-950.23 833.45,-950.23"/>
</g>
<!-- enc -->
<g id="node13" class="node">
<title>enc</title>
<path fill="#12241c" stroke="#3a4a63" stroke-width="1.3" d="M2045,-650.75C2045,-650.75 1765,-650.75 1765,-650.75 1759,-650.75 1753,-644.75 1753,-638.75 1753,-638.75 1753,-618.75 1753,-618.75 1753,-612.75 1759,-606.75 1765,-606.75 1765,-606.75 2045,-606.75 2045,-606.75 2051,-606.75 2057,-612.75 2057,-618.75 2057,-618.75 2057,-638.75 2057,-638.75 2057,-644.75 2051,-650.75 2045,-650.75"/>
<text text-anchor="middle" x="1905" y="-638.35" font-family="DejaVu Sans" font-size="10.50" fill="#e5ecf5">encoders.py · trích đặc trưng</text>
<text text-anchor="middle" x="1905" y="-626.35" font-family="DejaVu Sans" font-size="10.50" fill="#e5ecf5">hsv_block_texture (mặc định) / hsv_shape / deep_onnx</text>
<text text-anchor="middle" x="1905" y="-614.35" font-family="DejaVu Sans" font-size="10.50" fill="#e5ecf5">→ vector L2&#45;norm</text>
</g>
<!-- p4&#45;&gt;enc -->
<g id="edge16" class="edge">
<title>p4&#45;&gt;enc</title>
<path fill="none" stroke="#3a8f5f" stroke-width="1.3" stroke-dasharray="1,5" d="M886.64,-979.96C906.99,-970.59 929.34,-958.2 947,-943 998.5,-898.69 977.76,-854.6 1035,-818 1304.1,-645.92 1433.7,-772.52 1742,-689 1777.53,-679.37 1816.3,-665.43 1847.11,-653.49"/>
<polygon fill="#3a8f5f" stroke="#3a8f5f" stroke-width="1.3" points="1848.33,-655.64 1853.96,-650.81 1846.55,-651.08 1848.33,-655.64"/>
<text text-anchor="middle" x="1101" y="-837.8" font-family="DejaVu Sans" font-size="9.00" fill="#9fb3c8">score dùng RAM+WRM+DRM</text>
</g>
<!-- p6 -->
<g id="node8" class="node">
<title>p6</title>
<path fill="#102a26" stroke="#3a4a63" stroke-width="1.3" d="M961.5,-862C961.5,-862 700.5,-862 700.5,-862 694.5,-862 688.5,-856 688.5,-850 688.5,-850 688.5,-830 688.5,-830 688.5,-824 694.5,-818 700.5,-818 700.5,-818 961.5,-818 961.5,-818 967.5,-818 973.5,-824 973.5,-830 973.5,-830 973.5,-850 973.5,-850 973.5,-856 967.5,-862 961.5,-862"/>
<text text-anchor="middle" x="831" y="-849.6" font-family="DejaVu Sans" font-size="10.50" fill="#e5ecf5">⑥ (tùy chọn) Tinh chỉnh mask SAM2</text>
<text text-anchor="middle" x="831" y="-837.6" font-family="DejaVu Sans" font-size="10.50" fill="#e5ecf5">mỗi refine_interval frame · nếu quality ≥ mask_iou</text>
<text text-anchor="middle" x="831" y="-825.6" font-family="DejaVu Sans" font-size="10.50" fill="#e5ecf5">→ thay bbox &#160;(mặc định TẮT khi tracking)</text>
</g>
<!-- p5&#45;&gt;p6 -->
<g id="edge5" class="edge">
<title>p5&#45;&gt;p6</title>
<path fill="none" stroke="#5b7089" stroke-width="1.3" d="M831,-898.83C831,-889.8 831,-879.12 831,-869.42"/>
<polygon fill="#5b7089" stroke="#5b7089" stroke-width="1.3" points="833.45,-869.23 831,-862.23 828.55,-869.23 833.45,-869.23"/>
</g>
<!-- p7 -->
<g id="node9" class="node">
<title>p7</title>
<path fill="#173b2a" stroke="#3a4a63" stroke-width="1.3" d="M949,-781C949,-781 713,-781 713,-781 707,-781 701,-775 701,-769 701,-769 701,-737 701,-737 701,-731 707,-725 713,-725 713,-725 949,-725 949,-725 955,-725 961,-731 961,-737 961,-737 961,-769 961,-769 961,-775 955,-781 949,-781"/>
<text text-anchor="middle" x="831" y="-768.6" font-family="DejaVu Sans" font-size="10.50" fill="#a8efc6">⑦ Track score tổng hợp</text>
<text text-anchor="middle" x="831" y="-756.6" font-family="DejaVu Sans" font-size="10.50" fill="#a8efc6">0.35·conf + 0.25·sim + 0.20·motion</text>
<text text-anchor="middle" x="831" y="-744.6" font-family="DejaVu Sans" font-size="10.50" fill="#a8efc6">+ 0.20·mask − 0.25·neg_penalty</text>
<text text-anchor="middle" x="831" y="-732.6" font-family="DejaVu Sans" font-size="10.50" fill="#a8efc6">DRIFT CATCH: sim &lt; min_similarity → hạ điểm</text>
</g>
<!-- p6&#45;&gt;p7 -->
<g id="edge6" class="edge">
<title>p6&#45;&gt;p7</title>
<path fill="none" stroke="#5b7089" stroke-width="1.3" d="M831,-817.99C831,-809.05 831,-798.39 831,-788.35"/>
<polygon fill="#5b7089" stroke="#5b7089" stroke-width="1.3" points="833.45,-788.19 831,-781.19 828.55,-788.19 833.45,-788.19"/>
</g>
<!-- d_stable -->
<g id="node10" class="node">
<title>d_stable</title>
<path fill="#0f3d3a" stroke="#3a4a63" stroke-width="1.3" d="M909.5,-650.75C909.5,-650.75 752.5,-650.75 752.5,-650.75 746.5,-650.75 740.5,-644.75 740.5,-638.75 740.5,-638.75 740.5,-618.75 740.5,-618.75 740.5,-612.75 746.5,-606.75 752.5,-606.75 752.5,-606.75 909.5,-606.75 909.5,-606.75 915.5,-606.75 921.5,-612.75 921.5,-618.75 921.5,-618.75 921.5,-638.75 921.5,-638.75 921.5,-644.75 915.5,-650.75 909.5,-650.75"/>
<text text-anchor="middle" x="831" y="-638.35" font-family="DejaVu Sans" font-size="10.50" fill="#7fffe6">STABLE</text>
<text text-anchor="middle" x="831" y="-626.35" font-family="DejaVu Sans" font-size="10.50" fill="#7fffe6">score ≥ stable_threshold (0.70)</text>
<text text-anchor="middle" x="831" y="-614.35" font-family="DejaVu Sans" font-size="10.50" fill="#7fffe6">→ Tier A · cho update memory</text>
</g>
<!-- p7&#45;&gt;d_stable -->
<g id="edge9" class="edge">
<title>p7&#45;&gt;d_stable</title>
<path fill="none" stroke="#5b7089" stroke-width="1.3" d="M831,-724.87C831,-713.91 831,-700.81 831,-687.89"/>
<polygon fill="#5b7089" stroke="#5b7089" stroke-width="1.3" points="833.45,-687.75 831,-680.75 828.55,-687.75 833.45,-687.75"/>
<text text-anchor="middle" x="899" y="-699.8" font-family="DejaVu Sans" font-size="9.00" fill="#9fb3c8">gate = confidence.update(...)</text>
</g>
<!-- metrics -->
<g id="node25" class="node">
<title>metrics</title>
<path fill="#1a130a" stroke="#3a4a63" stroke-width="1.3" d="M1634.61,-416.5C1634.61,-416.5 1229.72,-416.5 1229.72,-416.5 1223.72,-416.5 1212.53,-413.49 1207.34,-410.48 1207.34,-410.48 1117.77,-358.52 1117.77,-358.52 1112.58,-355.51 1113.39,-352.5 1119.39,-352.5 1119.39,-352.5 1524.28,-352.5 1524.28,-352.5 1530.28,-352.5 1541.47,-355.51 1546.66,-358.52 1546.66,-358.52 1636.23,-410.48 1636.23,-410.48 1641.42,-413.49 1640.61,-416.5 1634.61,-416.5"/>
<text text-anchor="middle" x="1377" y="-388.1" font-family="DejaVu Sans" font-size="10.50" fill="#ffcf8f">metrics.py · FPS · latency · track_score ·</text>
<text text-anchor="middle" x="1377" y="-376.1" font-family="DejaVu Sans" font-size="10.50" fill="#ffcf8f">confidence · similarity · kalman_error · motion</text>
</g>
<!-- p7&#45;&gt;metrics -->
<g id="edge28" class="edge">
<title>p7&#45;&gt;metrics</title>
<path fill="none" stroke="#7a6a2a" stroke-width="1.3" stroke-dasharray="1,5" d="M957.07,-724.94C1000.7,-715.78 1049.95,-705.69 1095,-697 1340.99,-649.56 1401.16,-627.46 1650,-598.5 1720.86,-590.25 2241.99,-614.34 2291,-562.5 2486.55,-355.66 2277.89,-486.27 1651,-428.5 1621.59,-425.79 1590.55,-421.91 1560.34,-417.58"/>
<polygon fill="#7a6a2a" stroke="#7a6a2a" stroke-width="1.3" points="1560.37,-415.11 1553.09,-416.53 1559.67,-419.96 1560.37,-415.11"/>
</g>
<!-- d_stable&#45;&gt;tier -->
<g id="edge11" class="edge">
<title>d_stable&#45;&gt;tier</title>
<path fill="none" stroke="#3a8f7f" stroke-width="1.3" stroke-dasharray="5,2" d="M921.79,-635.42C978.46,-644.22 1047.39,-665.64 1084,-717 1109.74,-753.1 1105.03,-1270 1083,-1298 1080.53,-1301.14 1003.13,-1319.91 934.77,-1335.98"/>
<polygon fill="#3a8f7f" stroke="#3a8f7f" stroke-width="1.3" points="934.01,-1333.64 927.76,-1337.62 935.13,-1338.41 934.01,-1333.64"/>
<text text-anchor="middle" x="1179" y="-999.8" font-family="DejaVu Sans" font-size="9.00" fill="#9fb3c8">reinit_normal khi quay lại NORMAL</text>
</g>
<!-- gate -->
<g id="node14" class="node">
<title>gate</title>
<path fill="#13301f" stroke="#3a4a63" stroke-width="1.3" d="M1885.14,-544.68C1885.14,-544.68 1674.76,-512.32 1674.76,-512.32 1668.83,-511.41 1668.83,-509.59 1674.76,-508.68 1674.76,-508.68 1885.14,-476.32 1885.14,-476.32 1891.07,-475.41 1902.93,-475.41 1908.86,-476.32 1908.86,-476.32 2119.24,-508.68 2119.24,-508.68 2125.17,-509.59 2125.17,-511.41 2119.24,-512.32 2119.24,-512.32 1908.86,-544.68 1908.86,-544.68 1902.93,-545.59 1891.07,-545.59 1885.14,-544.68"/>
<text text-anchor="middle" x="1897" y="-520.1" font-family="DejaVu Sans" font-size="10.50" fill="#a8efc6">consider_update() — cổng SAMURAI</text>
<text text-anchor="middle" x="1897" y="-508.1" font-family="DejaVu Sans" font-size="10.50" fill="#a8efc6">kiểm: affinity · identity · motion · IoU distractor</text>
<text text-anchor="middle" x="1897" y="-496.1" font-family="DejaVu Sans" font-size="10.50" fill="#a8efc6">→ admit?</text>
</g>
<!-- d_stable&#45;&gt;gate -->
<g id="edge17" class="edge">
<title>d_stable&#45;&gt;gate</title>
<path fill="none" stroke="#3a8f5f" stroke-width="1.3" d="M918.77,-606.74C973.47,-594.4 1045.48,-579.5 1110,-570.5 1313.24,-542.15 1548.05,-526.77 1707.92,-518.9"/>
<polygon fill="#3a8f5f" stroke="#3a8f5f" stroke-width="1.3" points="1708.13,-521.34 1715,-518.55 1707.89,-516.45 1708.13,-521.34"/>
<text text-anchor="middle" x="1161" y="-573.3" font-family="DejaVu Sans" font-size="9.00" fill="#a0e6c0">allow_memory_update</text>
</g>
<!-- out -->
<g id="node24" class="node">
<title>out</title>
<path fill="#241a0e" stroke="#3a4a63" stroke-width="1.3" d="M1073.01,-428.5C1073.01,-428.5 692.94,-428.5 692.94,-428.5 686.94,-428.5 676.36,-424.62 671.78,-420.75 671.78,-420.75 586.15,-348.25 586.15,-348.25 581.57,-344.38 582.99,-340.5 588.99,-340.5 588.99,-340.5 969.06,-340.5 969.06,-340.5 975.06,-340.5 985.64,-344.38 990.22,-348.25 990.22,-348.25 1075.85,-420.75 1075.85,-420.75 1080.43,-424.62 1079.01,-428.5 1073.01,-428.5"/>
<text text-anchor="middle" x="831" y="-394.1" font-family="DejaVu Sans" font-size="10.50" fill="#ffcf8f">snapshot(include_frame=True)</text>
<text text-anchor="middle" x="831" y="-382.1" font-family="DejaVu Sans" font-size="10.50" fill="#ffcf8f">JPEG b64 + bbox + kalman_bbox + mask +</text>
<text text-anchor="middle" x="831" y="-370.1" font-family="DejaVu Sans" font-size="10.50" fill="#ffcf8f">candidates + metrics + memory + logs</text>
</g>
<!-- d_stable&#45;&gt;out -->
<g id="edge25" class="edge">
<title>d_stable&#45;&gt;out</title>
<path fill="none" stroke="#3a8f7f" stroke-width="1.3" d="M831,-606.68C831,-568.86 831,-488.5 831,-435.77"/>
<polygon fill="#3a8f7f" stroke="#3a8f7f" stroke-width="1.3" points="833.45,-435.52 831,-428.52 828.55,-435.52 833.45,-435.52"/>
</g>
<!-- d_unc -->
<g id="node11" class="node">
<title>d_unc</title>
<path fill="#3d3410" stroke="#3a4a63" stroke-width="1.3" d="M706,-650.75C706,-650.75 472,-650.75 472,-650.75 466,-650.75 460,-644.75 460,-638.75 460,-638.75 460,-618.75 460,-618.75 460,-612.75 466,-606.75 472,-606.75 472,-606.75 706,-606.75 706,-606.75 712,-606.75 718,-612.75 718,-618.75 718,-618.75 718,-638.75 718,-638.75 718,-644.75 712,-650.75 706,-650.75"/>
<text text-anchor="middle" x="589" y="-638.35" font-family="DejaVu Sans" font-size="10.50" fill="#ffe08a">UNCERTAIN → REFIND</text>
<text text-anchor="middle" x="589" y="-626.35" font-family="DejaVu Sans" font-size="10.50" fill="#ffe08a">uncertain ≤ score &lt; stable</text>
<text text-anchor="middle" x="589" y="-614.35" font-family="DejaVu Sans" font-size="10.50" fill="#ffe08a">sau refind_after frame · ĐÓNG BĂNG memory</text>
</g>
<!-- d_unc&#45;&gt;tier -->
<g id="edge10" class="edge">
<title>d_unc&#45;&gt;tier</title>
<path fill="none" stroke="#b59a3a" stroke-width="1.3" stroke-dasharray="5,2" d="M628.14,-650.77C655.75,-664.44 694.07,-681.14 730,-689 782.56,-700.5 918.49,-691.37 972,-697 1022.29,-702.29 1041.6,-689.45 1084,-717 1202.35,-793.91 1220.63,-845.06 1262,-980 1308.2,-1130.7 1231.75,-1204.31 1105,-1298 1074.45,-1320.58 1037.11,-1335.16 999.96,-1344.52"/>
<polygon fill="#b59a3a" stroke="#b59a3a" stroke-width="1.3" points="999.25,-1342.17 993.03,-1346.21 1000.41,-1346.93 999.25,-1342.17"/>
<text text-anchor="middle" x="1357" y="-999.8" font-family="DejaVu Sans" font-size="9.00" fill="#9fb3c8">seed_refind: init Tier B (box mở rộng)</text>
</g>
<!-- d_lost -->
<g id="node12" class="node">
<title>d_lost</title>
<path fill="#42171a" stroke="#3a4a63" stroke-width="1.3" d="M425.5,-650.75C425.5,-650.75 236.5,-650.75 236.5,-650.75 230.5,-650.75 224.5,-644.75 224.5,-638.75 224.5,-638.75 224.5,-618.75 224.5,-618.75 224.5,-612.75 230.5,-606.75 236.5,-606.75 236.5,-606.75 425.5,-606.75 425.5,-606.75 431.5,-606.75 437.5,-612.75 437.5,-618.75 437.5,-618.75 437.5,-638.75 437.5,-638.75 437.5,-644.75 431.5,-650.75 425.5,-650.75"/>
<text text-anchor="middle" x="331" y="-638.35" font-family="DejaVu Sans" font-size="10.50" fill="#ff9aa2">LOST</text>
<text text-anchor="middle" x="331" y="-626.35" font-family="DejaVu Sans" font-size="10.50" fill="#ff9aa2">score &lt; uncertain (5 frame) hoặc</text>
<text text-anchor="middle" x="331" y="-614.35" font-family="DejaVu Sans" font-size="10.50" fill="#ff9aa2">identity_lost ≥ 12 frame → bật detect</text>
</g>
<!-- r1 -->
<g id="node19" class="node">
<title>r1</title>
<path fill="#241315" stroke="#3a4a63" stroke-width="1.3" d="M423,-532.5C423,-532.5 229,-532.5 229,-532.5 223,-532.5 217,-526.5 217,-520.5 217,-520.5 217,-500.5 217,-500.5 217,-494.5 223,-488.5 229,-488.5 229,-488.5 423,-488.5 423,-488.5 429,-488.5 435,-494.5 435,-500.5 435,-500.5 435,-520.5 435,-520.5 435,-526.5 429,-532.5 423,-532.5"/>
<text text-anchor="middle" x="326" y="-520.1" font-family="DejaVu Sans" font-size="10.50" fill="#e5ecf5">① proposal.detect(frame)</text>
<text text-anchor="middle" x="326" y="-508.1" font-family="DejaVu Sans" font-size="10.50" fill="#e5ecf5">YOLO toàn khung · lọc theo class/label</text>
<text text-anchor="middle" x="326" y="-496.1" font-family="DejaVu Sans" font-size="10.50" fill="#e5ecf5">(reacquire.match_label)</text>
</g>
<!-- d_lost&#45;&gt;r1 -->
<g id="edge23" class="edge">
<title>d_lost&#45;&gt;r1</title>
<path fill="none" stroke="#5b7089" stroke-width="1.3" d="M330.09,-606.7C329.64,-596.24 329.08,-583.04 328.51,-569.82"/>
<polygon fill="#5b7089" stroke="#5b7089" stroke-width="1.3" points="330.94,-569.38 328.19,-562.5 326.05,-569.6 330.94,-569.38"/>
<text text-anchor="middle" x="360" y="-573.3" font-family="DejaVu Sans" font-size="9.00" fill="#9fb3c8">run_detection</text>
</g>
<!-- enc&#45;&gt;gate -->
<g id="edge12" class="edge">
<title>enc&#45;&gt;gate</title>
<path fill="none" stroke="#5b7089" stroke-width="1.3" d="M1903.55,-606.7C1902.53,-591.91 1901.14,-571.63 1899.9,-553.59"/>
<polygon fill="#5b7089" stroke="#5b7089" stroke-width="1.3" points="1902.34,-553.35 1899.41,-546.54 1897.45,-553.69 1902.34,-553.35"/>
</g>
<!-- ram -->
<g id="node15" class="node">
<title>ram</title>
<path fill="#14352a" stroke="#3a4a63" stroke-width="1.3" d="M1958,-409.46C1958,-412.52 1930.66,-415 1897,-415 1863.34,-415 1836,-412.52 1836,-409.46 1836,-409.46 1836,-359.54 1836,-359.54 1836,-356.48 1863.34,-354 1897,-354 1930.66,-354 1958,-356.48 1958,-359.54 1958,-359.54 1958,-409.46 1958,-409.46"/>
<path fill="none" stroke="#3a4a63" stroke-width="1.3" d="M1958,-409.46C1958,-406.4 1930.66,-403.91 1897,-403.91 1863.34,-403.91 1836,-406.4 1836,-409.46"/>
<text text-anchor="middle" x="1897" y="-394.1" font-family="DejaVu Sans" font-size="10.50" fill="#bdf0d4">RAM</text>
<text text-anchor="middle" x="1897" y="-382.1" font-family="DejaVu Sans" font-size="10.50" fill="#bdf0d4">ngắn hạn</text>
<text text-anchor="middle" x="1897" y="-370.1" font-family="DejaVu Sans" font-size="10.50" fill="#bdf0d4">(mỗi frame STABLE)</text>
</g>
<!-- gate&#45;&gt;ram -->
<g id="edge13" class="edge">
<title>gate&#45;&gt;ram</title>
<path fill="none" stroke="#5b7089" stroke-width="1.3" d="M1897,-474.3C1897,-458.03 1897,-438.71 1897,-422.26"/>
<polygon fill="#5b7089" stroke="#5b7089" stroke-width="1.3" points="1899.45,-421.92 1897,-414.92 1894.55,-421.92 1899.45,-421.92"/>
<text text-anchor="middle" x="1942.5" y="-449.3" font-family="DejaVu Sans" font-size="9.00" fill="#9fb3c8">admit → consolidate</text>
</g>
<!-- gate&#45;&gt;out -->
<!-- wrm -->
<g id="node16" class="node">
<title>wrm</title>
<path fill="#123a2e" stroke="#3a4a63" stroke-width="1.3" d="M1966,-279.21C1966,-282.27 1935.07,-284.75 1897,-284.75 1858.93,-284.75 1828,-282.27 1828,-279.21 1828,-279.21 1828,-229.29 1828,-229.29 1828,-226.23 1858.93,-223.75 1897,-223.75 1935.07,-223.75 1966,-226.23 1966,-229.29 1966,-229.29 1966,-279.21 1966,-279.21"/>
<path fill="none" stroke="#3a4a63" stroke-width="1.3" d="M1966,-279.21C1966,-276.15 1935.07,-273.66 1897,-273.66 1858.93,-273.66 1828,-276.15 1828,-279.21"/>
<text text-anchor="middle" x="1897" y="-263.85" font-family="DejaVu Sans" font-size="10.50" fill="#bdf0d4">WRM</text>
<text text-anchor="middle" x="1897" y="-251.85" font-family="DejaVu Sans" font-size="10.50" fill="#bdf0d4">làm việc</text>
<text text-anchor="middle" x="1897" y="-239.85" font-family="DejaVu Sans" font-size="10.50" fill="#bdf0d4">(promote mỗi N frame)</text>
</g>
<!-- ram&#45;&gt;wrm -->
<g id="edge14" class="edge">
<title>ram&#45;&gt;wrm</title>
<path fill="none" stroke="#5b7089" stroke-width="1.3" d="M1897,-354.08C1897,-335.5 1897,-311.37 1897,-291.6"/>
<polygon fill="#5b7089" stroke="#5b7089" stroke-width="1.3" points="1899.45,-291.54 1897,-284.54 1894.55,-291.54 1899.45,-291.54"/>
<text text-anchor="middle" x="1951.5" y="-310.3" font-family="DejaVu Sans" font-size="9.00" fill="#9fb3c8">working_promote_every</text>
</g>
<!-- drm -->
<g id="node17" class="node">
<title>drm</title>
<path fill="#0f4034" stroke="#3a4a63" stroke-width="1.3" d="M1970,-166.96C1970,-170.02 1937.28,-172.5 1897,-172.5 1856.72,-172.5 1824,-170.02 1824,-166.96 1824,-166.96 1824,-117.04 1824,-117.04 1824,-113.98 1856.72,-111.5 1897,-111.5 1937.28,-111.5 1970,-113.98 1970,-117.04 1970,-117.04 1970,-166.96 1970,-166.96"/>
<path fill="none" stroke="#3a4a63" stroke-width="1.3" d="M1970,-166.96C1970,-163.9 1937.28,-161.41 1897,-161.41 1856.72,-161.41 1824,-163.9 1824,-166.96"/>
<text text-anchor="middle" x="1897" y="-151.6" font-family="DejaVu Sans" font-size="10.50" fill="#9affd0">DRM</text>
<text text-anchor="middle" x="1897" y="-139.6" font-family="DejaVu Sans" font-size="10.50" fill="#9affd0">dài hạn — NEO re&#45;detect</text>
<text text-anchor="middle" x="1897" y="-127.6" font-family="DejaVu Sans" font-size="10.50" fill="#9affd0">(seed lúc lock, ít đổi)</text>
</g>
<!-- wrm&#45;&gt;drm -->
<g id="edge15" class="edge">
<title>wrm&#45;&gt;drm</title>
<path fill="none" stroke="#5b7089" stroke-width="1.3" d="M1897,-223.99C1897,-210.41 1897,-194.12 1897,-179.72"/>
<polygon fill="#5b7089" stroke="#5b7089" stroke-width="1.3" points="1899.45,-179.39 1897,-172.39 1894.55,-179.39 1899.45,-179.39"/>
<text text-anchor="middle" x="1936.5" y="-198.8" font-family="DejaVu Sans" font-size="9.00" fill="#9fb3c8">hợp nhất dài hạn</text>
</g>
<!-- r3 -->
<g id="node21" class="node">
<title>r3</title>
<path fill="#241315" stroke="#3a4a63" stroke-width="1.3" d="M407,-282.25C407,-282.25 227,-282.25 227,-282.25 221,-282.25 215,-276.25 215,-270.25 215,-270.25 215,-238.25 215,-238.25 215,-232.25 221,-226.25 227,-226.25 227,-226.25 407,-226.25 407,-226.25 413,-226.25 419,-232.25 419,-238.25 419,-238.25 419,-270.25 419,-270.25 419,-276.25 413,-282.25 407,-282.25"/>
<text text-anchor="middle" x="317" y="-269.85" font-family="DejaVu Sans" font-size="10.50" fill="#e5ecf5">③ ReAcquireEngine.rank()</text>
<text text-anchor="middle" x="317" y="-257.85" font-family="DejaVu Sans" font-size="10.50" fill="#e5ecf5">reid = w_id·identity + w_mo·motion</text>
<text text-anchor="middle" x="317" y="-245.85" font-family="DejaVu Sans" font-size="10.50" fill="#e5ecf5">+ w_det·detector + w_mask·mask</text>
<text text-anchor="middle" x="317" y="-233.85" font-family="DejaVu Sans" font-size="10.50" fill="#e5ecf5">(weights đổi theo lost_age)</text>
</g>
<!-- drm&#45;&gt;r3 -->
<g id="edge24" class="edge">
<title>drm&#45;&gt;r3</title>
<path fill="none" stroke="#3a8f5f" stroke-width="1.3" stroke-dasharray="1,5" d="M1967.06,-170.36C1983.87,-180.68 1993.72,-193.07 1981,-206 1958.59,-228.77 862.93,-222.84 831,-224 691.3,-229.07 530.44,-238.86 426.42,-245.71"/>
<polygon fill="#3a8f5f" stroke="#3a8f5f" stroke-width="1.3" points="426.16,-243.28 419.34,-246.18 426.49,-248.16 426.16,-243.28"/>
<text text-anchor="middle" x="2048.5" y="-198.8" font-family="DejaVu Sans" font-size="9.00" fill="#9fb3c8">neo danh tính (DRM+WRM)</text>
</g>
<!-- neg -->
<g id="node18" class="node">
<title>neg</title>
<path fill="#3a1a1a" stroke="#3a4a63" stroke-width="1.3" d="M1731,-653.71C1731,-656.77 1715.76,-659.25 1697,-659.25 1678.24,-659.25 1663,-656.77 1663,-653.71 1663,-653.71 1663,-603.79 1663,-603.79 1663,-600.73 1678.24,-598.25 1697,-598.25 1715.76,-598.25 1731,-600.73 1731,-603.79 1731,-603.79 1731,-653.71 1731,-653.71"/>
<path fill="none" stroke="#3a4a63" stroke-width="1.3" d="M1731,-653.71C1731,-650.65 1715.76,-648.16 1697,-648.16 1678.24,-648.16 1663,-650.65 1663,-653.71"/>
<text text-anchor="middle" x="1697" y="-638.35" font-family="DejaVu Sans" font-size="10.50" fill="#ffb3b3">NEG</text>
<text text-anchor="middle" x="1697" y="-626.35" font-family="DejaVu Sans" font-size="10.50" fill="#ffb3b3">distractor</text>
<text text-anchor="middle" x="1697" y="-614.35" font-family="DejaVu Sans" font-size="10.50" fill="#ffb3b3">(âm tính)</text>
</g>
<!-- r2 -->
<g id="node20" class="node">
<title>r2</title>
<path fill="#241315" stroke="#3a4a63" stroke-width="1.3" d="M401,-402.5C401,-402.5 241,-402.5 241,-402.5 235,-402.5 229,-396.5 229,-390.5 229,-390.5 229,-378.5 229,-378.5 229,-372.5 235,-366.5 241,-366.5 241,-366.5 401,-366.5 401,-366.5 407,-366.5 413,-372.5 413,-378.5 413,-378.5 413,-390.5 413,-390.5 413,-396.5 407,-402.5 401,-402.5"/>
<text text-anchor="middle" x="321" y="-382.1" font-family="DejaVu Sans" font-size="10.50" fill="#e5ecf5">② Refine SAM2 top&#45;N candidate</text>
</g>
<!-- r1&#45;&gt;r2 -->
<g id="edge18" class="edge">
<title>r1&#45;&gt;r2</title>
<path fill="none" stroke="#5b7089" stroke-width="1.3" d="M325.15,-488.47C324.27,-466.64 322.9,-432.57 321.97,-409.65"/>
<polygon fill="#5b7089" stroke="#5b7089" stroke-width="1.3" points="324.42,-409.53 321.69,-402.64 319.53,-409.73 324.42,-409.53"/>
</g>
<!-- r2&#45;&gt;r3 -->
<g id="edge19" class="edge">
<title>r2&#45;&gt;r3</title>
<path fill="none" stroke="#5b7089" stroke-width="1.3" d="M320.47,-366.47C319.86,-347 318.85,-314.61 318.08,-289.79"/>
<polygon fill="#5b7089" stroke="#5b7089" stroke-width="1.3" points="320.52,-289.61 317.86,-282.69 315.63,-289.76 320.52,-289.61"/>
</g>
<!-- r4 -->
<g id="node22" class="node">
<title>r4</title>
<path fill="#2a1316" stroke="#3a4a63" stroke-width="1.3" d="M303.13,-176.26C303.13,-176.26 81.04,-143.74 81.04,-143.74 75.11,-142.87 75.11,-141.13 81.04,-140.26 81.04,-140.26 303.13,-107.74 303.13,-107.74 309.06,-106.87 320.94,-106.87 326.87,-107.74 326.87,-107.74 548.96,-140.26 548.96,-140.26 554.89,-141.13 554.89,-142.87 548.96,-143.74 548.96,-143.74 326.87,-176.26 326.87,-176.26 320.94,-177.13 309.06,-177.13 303.13,-176.26"/>
<text text-anchor="middle" x="315" y="-151.6" font-family="DejaVu Sans" font-size="10.50" fill="#ffb3b3">④ ConfirmationBuffer.attempt()</text>
<text text-anchor="middle" x="315" y="-139.6" font-family="DejaVu Sans" font-size="10.50" fill="#ffb3b3">IoU ≥ gate &#160;HOẶC &#160;center&#45;dist &#160;HOẶC &#160;reid ≥ 0.85</text>
<text text-anchor="middle" x="315" y="-127.6" font-family="DejaVu Sans" font-size="10.50" fill="#ffb3b3">streak ≥ confirm_frames</text>
</g>
<!-- r3&#45;&gt;r4 -->
<g id="edge20" class="edge">
<title>r3&#45;&gt;r4</title>
<path fill="none" stroke="#5b7089" stroke-width="1.3" d="M316.51,-226C316.28,-213.73 316.02,-198.95 315.77,-185.29"/>
<polygon fill="#5b7089" stroke="#5b7089" stroke-width="1.3" points="318.22,-185.22 315.64,-178.27 313.32,-185.31 318.22,-185.22"/>
</g>
<!-- r4&#45;&gt;r1 -->
<g id="edge22" class="edge">
<title>r4&#45;&gt;r1</title>
<path fill="none" stroke="#7a3030" stroke-width="1.3" stroke-dasharray="5,2" d="M373.69,-169.44C395.49,-182.51 417.85,-200.59 430,-224 471.87,-304.71 464.44,-347.06 424,-428.5 412.47,-451.71 390.91,-470.67 370.93,-484.39"/>
<polygon fill="#7a3030" stroke="#7a3030" stroke-width="1.3" points="369.54,-482.38 365.08,-488.3 372.26,-486.46 369.54,-482.38"/>
<text text-anchor="middle" x="515" y="-315.3" font-family="DejaVu Sans" font-size="9.00" fill="#9fb3c8">chưa đủ → detect_hz</text>
<text text-anchor="middle" x="515" y="-305.3" font-family="DejaVu Sans" font-size="9.00" fill="#9fb3c8">(3 Hz → 1 Hz khi lost lâu)</text>
</g>
<!-- r5 -->
<g id="node23" class="node">
<title>r5</title>
<path fill="#16314f" stroke="#3a4a63" stroke-width="1.3" d="M400,-60C400,-60 230,-60 230,-60 224,-60 218,-54 218,-48 218,-48 218,-28 218,-28 218,-22 224,-16 230,-16 230,-16 400,-16 400,-16 406,-16 412,-22 412,-28 412,-28 412,-48 412,-48 412,-54 406,-60 400,-60"/>
<text text-anchor="middle" x="315" y="-47.6" font-family="DejaVu Sans" font-size="10.50" fill="#bfe0ff">⑤ Re&#45;lock: tracker/refind init,</text>
<text text-anchor="middle" x="315" y="-35.6" font-family="DejaVu Sans" font-size="10.50" fill="#bfe0ff">kalman.reset, confidence.on_lock</text>
<text text-anchor="middle" x="315" y="-23.6" font-family="DejaVu Sans" font-size="10.50" fill="#bfe0ff">→ REACQUIRED → LOCKED</text>
</g>
<!-- r4&#45;&gt;r5 -->
<g id="edge21" class="edge">
<title>r4&#45;&gt;r5</title>
<path fill="none" stroke="#5b7089" stroke-width="1.3" d="M315,-105.9C315,-93.3 315,-79.26 315,-67.31"/>
<polygon fill="#5b7089" stroke="#5b7089" stroke-width="1.3" points="317.45,-67.17 315,-60.17 312.55,-67.17 317.45,-67.17"/>
<text text-anchor="middle" x="338.5" y="-80.8" font-family="DejaVu Sans" font-size="9.00" fill="#9fb3c8">confirmed</text>
</g>
<!-- r5&#45;&gt;out -->
<g id="edge27" class="edge">
<title>r5&#45;&gt;out</title>
<path fill="none" stroke="#5b7089" stroke-width="1.3" d="M412.01,-38.48C800.35,-36.86 2225.06,-35.61 2291,-103.75 2322.6,-136.41 2322.68,-173.42 2291,-206 2266.17,-231.54 1685.41,-220.08 1650,-224 1586.44,-231.03 1220.89,-304.25 1000.2,-349"/>
<polygon fill="#5b7089" stroke="#5b7089" stroke-width="1.3" points="999.44,-346.66 993.07,-350.45 1000.41,-351.46 999.44,-346.66"/>
</g>
<!-- ws_out -->
<g id="node26" class="node">
<title>ws_out</title>
<path fill="#102033" stroke="#3a4a63" stroke-width="2" d="M1288,-272.25C1288,-272.25 854,-272.25 854,-272.25 848,-272.25 842,-266.25 842,-260.25 842,-260.25 842,-248.25 842,-248.25 842,-242.25 848,-236.25 854,-236.25 854,-236.25 1288,-236.25 1288,-236.25 1294,-236.25 1300,-242.25 1300,-248.25 1300,-248.25 1300,-260.25 1300,-260.25 1300,-266.25 1294,-272.25 1288,-272.25"/>
<text text-anchor="middle" x="1071" y="-251.85" font-family="DejaVu Sans" font-size="10.50" fill="#7fd1ff">◀── WebSocket &#160;/ws/session &#160;──▶ &#160;Frontend (CameraViewport overlay + RightPanel)</text>
</g>
<!-- out&#45;&gt;ws_out -->
<g id="edge29" class="edge">
<title>out&#45;&gt;ws_out</title>
<path fill="none" stroke="#5b7089" stroke-width="1.3" d="M911.58,-340.44C952.44,-318.61 1000.15,-293.11 1032.65,-275.74"/>
<polygon fill="#5b7089" stroke="#5b7089" stroke-width="1.3" points="1033.92,-277.84 1038.94,-272.38 1031.62,-273.52 1033.92,-277.84"/>
</g>
<!-- metrics&#45;&gt;ws_out -->
<g id="edge30" class="edge">
<title>metrics&#45;&gt;ws_out</title>
<path fill="none" stroke="#7a6a2a" stroke-width="1.3" stroke-dasharray="1,5" d="M1302.93,-352.45C1245.37,-328.33 1167.3,-295.61 1118.03,-274.96"/>
<polygon fill="#7a6a2a" stroke="#7a6a2a" stroke-width="1.3" points="1118.98,-272.7 1111.58,-272.26 1117.08,-277.22 1118.98,-272.7"/>
</g>
</g>
</svg>
