<?xml version="1.0" encoding="UTF-8" standalone="no"?>
<!DOCTYPE svg PUBLIC "-//W3C//DTD SVG 1.1//EN"
 "http://www.w3.org/Graphics/SVG/1.1/DTD/svg11.dtd">
<!-- Generated by graphviz version 2.43.0 (0)
 -->
<!-- Title: VisionLockOverview Pages: 1 -->
<svg width="2242pt" height="1345pt"
 viewBox="0.00 0.00 2242.00 1345.00" xmlns="http://www.w3.org/2000/svg" xmlns:xlink="http://www.w3.org/1999/xlink">
<g id="graph0" class="graph" transform="scale(1 1) rotate(0) translate(4 1341)">
<title>VisionLockOverview</title>
<polygon fill="#0b0f17" stroke="transparent" points="-4,4 -4,-1341 2238,-1341 2238,4 -4,4"/>
<text text-anchor="middle" x="1117" y="-1312.2" font-family="DejaVu Sans" font-size="26.00" fill="#e5ecf5">RTR · VisionLock Console — Kiến trúc tổng thể &amp; Luồng trạng thái (Frontend ↔ Backend)</text>
<g id="clust1" class="cluster">
<title>cluster_fe</title>
<path fill="#0e1726" stroke="#1f3a5f" stroke-width="2" d="M20,-911C20,-911 1099,-911 1099,-911 1105,-911 1111,-917 1111,-923 1111,-923 1111,-1280 1111,-1280 1111,-1286 1105,-1292 1099,-1292 1099,-1292 20,-1292 20,-1292 14,-1292 8,-1286 8,-1280 8,-1280 8,-923 8,-923 8,-917 14,-911 20,-911"/>
<text text-anchor="middle" x="559.5" y="-1276" font-family="DejaVu Sans" font-size="15.00" fill="#7fd1ff">FRONTEND &#160;· &#160;React + TypeScript &#160;(Electron / Browser)</text>
</g>
<g id="clust2" class="cluster">
<title>cluster_cfg</title>
<path fill="#0c1b16" stroke="#1d4a36" stroke-width="2" d="M533,-1063C533,-1063 1091,-1063 1091,-1063 1097,-1063 1103,-1069 1103,-1075 1103,-1075 1103,-1143 1103,-1143 1103,-1149 1097,-1155 1091,-1155 1091,-1155 533,-1155 533,-1155 527,-1155 521,-1149 521,-1143 521,-1143 521,-1075 521,-1075 521,-1069 527,-1063 533,-1063"/>
<text text-anchor="middle" x="812" y="-1142.2" font-family="DejaVu Sans" font-size="11.00" fill="#a0e6c0">Trang cấu hình &#160;(ConfigForm + slider)</text>
</g>
<g id="clust4" class="cluster">
<title>cluster_be</title>
<path fill="#160d0d" stroke="#5f1f1f" stroke-width="2" d="M1890,-756C1890,-756 2214,-756 2214,-756 2220,-756 2226,-762 2226,-768 2226,-768 2226,-1153 2226,-1153 2226,-1159 2220,-1165 2214,-1165 2214,-1165 1890,-1165 1890,-1165 1884,-1165 1878,-1159 1878,-1153 1878,-1153 1878,-768 1878,-768 1878,-762 1884,-756 1890,-756"/>
<text text-anchor="middle" x="2052" y="-1149" font-family="DejaVu Sans" font-size="15.00" fill="#ff9a9a">BACKEND &#160;· &#160;FastAPI &#160;(app/main.py)</text>
</g>
<g id="clust5" class="cluster">
<title>cluster_sess</title>
<path fill="#0f1622" stroke="#3a4a63" stroke-width="2" d="M1898,-764C1898,-764 2206,-764 2206,-764 2212,-764 2218,-770 2218,-776 2218,-776 2218,-997 2218,-997 2218,-1003 2212,-1009 2206,-1009 2206,-1009 1898,-1009 1898,-1009 1892,-1009 1886,-1003 1886,-997 1886,-997 1886,-776 1886,-776 1886,-770 1892,-764 1898,-764"/>
<text text-anchor="middle" x="2052" y="-995.4" font-family="DejaVu Sans" font-size="12.00" fill="#e5ecf5">core/session.py &#160;· &#160;TrackingSession &#160;(luồng nền _loop)</text>
</g>
<g id="clust3" class="cluster">
<title>cluster_net</title>
<path fill="#1a130a" stroke="#5a3d12" stroke-width="2" d="M1131,-901C1131,-901 1858,-901 1858,-901 1864,-901 1870,-907 1870,-913 1870,-913 1870,-1007 1870,-1007 1870,-1013 1864,-1019 1858,-1019 1858,-1019 1131,-1019 1131,-1019 1125,-1019 1119,-1013 1119,-1007 1119,-1007 1119,-913 1119,-913 1119,-907 1125,-901 1131,-901"/>
<text text-anchor="middle" x="1494.5" y="-1003.8" font-family="DejaVu Sans" font-size="14.00" fill="#ffcf8f">LỚP TRUYỀN &#160;· &#160;HTTP REST &#160;+ &#160;WebSocket</text>
</g>
<g id="clust6" class="cluster">
<title>cluster_fsm</title>
<path fill="#0d1422" stroke="#2a3f63" stroke-width="2" d="M1424,-8C1424,-8 1749,-8 1749,-8 1755,-8 1761,-14 1761,-20 1761,-20 1761,-718 1761,-718 1761,-724 1755,-730 1749,-730 1749,-730 1424,-730 1424,-730 1418,-730 1412,-724 1412,-718 1412,-718 1412,-20 1412,-20 1412,-14 1418,-8 1424,-8"/>
<text text-anchor="middle" x="1586.5" y="-714.8" font-family="DejaVu Sans" font-size="14.00" fill="#cfe3ff">MÁY TRẠNG THÁI THEO DÕI &#160;(vòng đời 1 target)</text>
</g>
<!-- fe_dash -->
<g id="node1" class="node">
<title>fe_dash</title>
<path fill="#13243b" stroke="#3a4a63" stroke-width="1.3" d="M431,-1234C431,-1234 357,-1234 357,-1234 351,-1234 345,-1228 345,-1222 345,-1222 345,-1210 345,-1210 345,-1204 351,-1198 357,-1198 357,-1198 431,-1198 431,-1198 437,-1198 443,-1204 443,-1210 443,-1210 443,-1222 443,-1222 443,-1228 437,-1234 431,-1234"/>
<text text-anchor="middle" x="394" y="-1219.2" font-family="DejaVu Sans" font-size="11.00" fill="#e5ecf5">LiveDashboard</text>
<text text-anchor="middle" x="394" y="-1207.2" font-family="DejaVu Sans" font-size="11.00" fill="#e5ecf5">(trang chính)</text>
</g>
<!-- fe_left -->
<g id="node2" class="node">
<title>fe_left</title>
<path fill="#13243b" stroke="#3a4a63" stroke-width="1.3" d="M492.5,-1111C492.5,-1111 295.5,-1111 295.5,-1111 289.5,-1111 283.5,-1105 283.5,-1099 283.5,-1099 283.5,-1079 283.5,-1079 283.5,-1073 289.5,-1067 295.5,-1067 295.5,-1067 492.5,-1067 492.5,-1067 498.5,-1067 504.5,-1073 504.5,-1079 504.5,-1079 504.5,-1099 504.5,-1099 504.5,-1105 498.5,-1111 492.5,-1111"/>
<text text-anchor="middle" x="394" y="-1098.2" font-family="DejaVu Sans" font-size="11.00" fill="#e5ecf5">LeftPanel</text>
<text text-anchor="middle" x="394" y="-1086.2" font-family="DejaVu Sans" font-size="11.00" fill="#e5ecf5">Điều khiển camera / chọn target /</text>
<text text-anchor="middle" x="394" y="-1074.2" font-family="DejaVu Sans" font-size="11.00" fill="#e5ecf5">reset · force re&#45;acquire · text prompt</text>
</g>
<!-- fe_dash&#45;&gt;fe_left -->
<!-- fe_ctx -->
<g id="node9" class="node">
<title>fe_ctx</title>
<path fill="#102033" stroke="#3a4a63" stroke-width="1.3" d="M696.5,-955C696.5,-955 467.5,-955 467.5,-955 461.5,-955 455.5,-949 455.5,-943 455.5,-943 455.5,-931 455.5,-931 455.5,-925 461.5,-919 467.5,-919 467.5,-919 696.5,-919 696.5,-919 702.5,-919 708.5,-925 708.5,-931 708.5,-931 708.5,-943 708.5,-943 708.5,-949 702.5,-955 696.5,-955"/>
<text text-anchor="middle" x="582" y="-940.2" font-family="DejaVu Sans" font-size="11.00" fill="#7fd1ff">lib/trackingSession.tsx &#160;+ &#160;lib/api.ts</text>
<text text-anchor="middle" x="582" y="-928.2" font-family="DejaVu Sans" font-size="11.00" fill="#7fd1ff">Session context · gộp state · build URL/WS</text>
</g>
<!-- fe_left&#45;&gt;fe_ctx -->
<g id="edge1" class="edge">
<title>fe_left&#45;&gt;fe_ctx</title>
<path fill="none" stroke="#3a4a63" stroke-width="1.2" stroke-dasharray="1,5" d="M420.54,-1066.83C456.18,-1038.39 519.18,-988.12 555.04,-959.51"/>
<polygon fill="#3a4a63" stroke="#3a4a63" stroke-width="1.2" points="556.61,-961.39 560.55,-955.11 553.55,-957.56 556.61,-961.39"/>
</g>
<!-- fe_view -->
<g id="node3" class="node">
<title>fe_view</title>
<path fill="#13243b" stroke="#3a4a63" stroke-width="1.3" d="M246,-1117C246,-1117 28,-1117 28,-1117 22,-1117 16,-1111 16,-1105 16,-1105 16,-1073 16,-1073 16,-1067 22,-1061 28,-1061 28,-1061 246,-1061 246,-1061 252,-1061 258,-1067 258,-1073 258,-1073 258,-1105 258,-1105 258,-1111 252,-1117 246,-1117"/>
<text text-anchor="middle" x="137" y="-1104.2" font-family="DejaVu Sans" font-size="11.00" fill="#e5ecf5">CameraViewport</text>
<text text-anchor="middle" x="137" y="-1092.2" font-family="DejaVu Sans" font-size="11.00" fill="#e5ecf5">Khung hình + overlay</text>
<text text-anchor="middle" x="137" y="-1080.2" font-family="DejaVu Sans" font-size="11.00" fill="#e5ecf5">(mask · candidate · reticle · Kalman box)</text>
<text text-anchor="middle" x="137" y="-1068.2" font-family="DejaVu Sans" font-size="11.00" fill="#e5ecf5">click / kéo box</text>
</g>
<!-- fe_view&#45;&gt;fe_ctx -->
<g id="edge2" class="edge">
<title>fe_view&#45;&gt;fe_ctx</title>
<path fill="none" stroke="#3a4a63" stroke-width="1.2" stroke-dasharray="1,5" d="M217.33,-1060.92C305.91,-1031.07 446.21,-983.77 524.45,-957.4"/>
<polygon fill="#3a4a63" stroke="#3a4a63" stroke-width="1.2" points="525.51,-959.63 531.36,-955.07 523.95,-954.98 525.51,-959.63"/>
</g>
<!-- fe_right -->
<g id="node4" class="node">
<title>fe_right</title>
<path fill="#13243b" stroke="#3a4a63" stroke-width="1.3" d="M287.5,-1234C287.5,-1234 48.5,-1234 48.5,-1234 42.5,-1234 36.5,-1228 36.5,-1222 36.5,-1222 36.5,-1210 36.5,-1210 36.5,-1204 42.5,-1198 48.5,-1198 48.5,-1198 287.5,-1198 287.5,-1198 293.5,-1198 299.5,-1204 299.5,-1210 299.5,-1210 299.5,-1222 299.5,-1222 299.5,-1228 293.5,-1234 287.5,-1234"/>
<text text-anchor="middle" x="168" y="-1219.2" font-family="DejaVu Sans" font-size="11.00" fill="#e5ecf5">RightPanel + Topbar + BottomConsole</text>
<text text-anchor="middle" x="168" y="-1207.2" font-family="DejaVu Sans" font-size="11.00" fill="#e5ecf5">Metrics · trạng thái · memory · log · timeline</text>
</g>
<!-- cfg_thr -->
<g id="node5" class="node">
<title>cfg_thr</title>
<path fill="#12241c" stroke="#3a4a63" stroke-width="1.3" d="M622.5,-1107C622.5,-1107 541.5,-1107 541.5,-1107 535.5,-1107 529.5,-1101 529.5,-1095 529.5,-1095 529.5,-1083 529.5,-1083 529.5,-1077 535.5,-1071 541.5,-1071 541.5,-1071 622.5,-1071 622.5,-1071 628.5,-1071 634.5,-1077 634.5,-1083 634.5,-1083 634.5,-1095 634.5,-1095 634.5,-1101 628.5,-1107 622.5,-1107"/>
<text text-anchor="middle" x="582" y="-1092.2" font-family="DejaVu Sans" font-size="11.00" fill="#e5ecf5">ThresholdConfig</text>
<text text-anchor="middle" x="582" y="-1080.2" font-family="DejaVu Sans" font-size="11.00" fill="#e5ecf5">ngưỡng FSM</text>
</g>
<!-- cfg_thr&#45;&gt;fe_ctx -->
<!-- s_lock -->
<g id="node18" class="node">
<title>s_lock</title>
<path fill="#0f3d3a" stroke="#3a4a63" stroke-width="2.4" d="M1596.5,-368C1596.5,-368 1445.5,-368 1445.5,-368 1439.5,-368 1433.5,-362 1433.5,-356 1433.5,-356 1433.5,-336 1433.5,-336 1433.5,-330 1439.5,-324 1445.5,-324 1445.5,-324 1596.5,-324 1596.5,-324 1602.5,-324 1608.5,-330 1608.5,-336 1608.5,-336 1608.5,-356 1608.5,-356 1608.5,-362 1602.5,-368 1596.5,-368"/>
<text text-anchor="middle" x="1521" y="-355.2" font-family="DejaVu Sans" font-size="11.00" fill="#7fffe6">LOCKED_TRACKING / STABLE</text>
<text text-anchor="middle" x="1521" y="-343.2" font-family="DejaVu Sans" font-size="11.00" fill="#7fffe6">Tier A — UETrack</text>
<text text-anchor="middle" x="1521" y="-331.2" font-family="DejaVu Sans" font-size="11.00" fill="#7fffe6">(_update_tracking)</text>
</g>
<!-- cfg_thr&#45;&gt;s_lock -->
<!-- cfg_mem -->
<g id="node6" class="node">
<title>cfg_mem</title>
<path fill="#12241c" stroke="#3a4a63" stroke-width="1.3" d="M932,-1107C932,-1107 840,-1107 840,-1107 834,-1107 828,-1101 828,-1095 828,-1095 828,-1083 828,-1083 828,-1077 834,-1071 840,-1071 840,-1071 932,-1071 932,-1071 938,-1071 944,-1077 944,-1083 944,-1083 944,-1095 944,-1095 944,-1101 938,-1107 932,-1107"/>
<text text-anchor="middle" x="886" y="-1092.2" font-family="DejaVu Sans" font-size="11.00" fill="#e5ecf5">MemoryConfig</text>
<text text-anchor="middle" x="886" y="-1080.2" font-family="DejaVu Sans" font-size="11.00" fill="#e5ecf5">banks + SAMURAI</text>
</g>
<!-- cfg_rea -->
<g id="node7" class="node">
<title>cfg_rea</title>
<path fill="#12241c" stroke="#3a4a63" stroke-width="1.3" d="M790.5,-1107C790.5,-1107 671.5,-1107 671.5,-1107 665.5,-1107 659.5,-1101 659.5,-1095 659.5,-1095 659.5,-1083 659.5,-1083 659.5,-1077 665.5,-1071 671.5,-1071 671.5,-1071 790.5,-1071 790.5,-1071 796.5,-1071 802.5,-1077 802.5,-1083 802.5,-1083 802.5,-1095 802.5,-1095 802.5,-1101 796.5,-1107 790.5,-1107"/>
<text text-anchor="middle" x="731" y="-1092.2" font-family="DejaVu Sans" font-size="11.00" fill="#e5ecf5">ReacquireConfig</text>
<text text-anchor="middle" x="731" y="-1080.2" font-family="DejaVu Sans" font-size="11.00" fill="#e5ecf5">detect/confirm/weights</text>
</g>
<!-- cfg_mod -->
<g id="node8" class="node">
<title>cfg_mod</title>
<path fill="#12241c" stroke="#3a4a63" stroke-width="1.3" d="M1082.5,-1107C1082.5,-1107 981.5,-1107 981.5,-1107 975.5,-1107 969.5,-1101 969.5,-1095 969.5,-1095 969.5,-1083 969.5,-1083 969.5,-1077 975.5,-1071 981.5,-1071 981.5,-1071 1082.5,-1071 1082.5,-1071 1088.5,-1071 1094.5,-1077 1094.5,-1083 1094.5,-1083 1094.5,-1095 1094.5,-1095 1094.5,-1101 1088.5,-1107 1082.5,-1107"/>
<text text-anchor="middle" x="1032" y="-1092.2" font-family="DejaVu Sans" font-size="11.00" fill="#e5ecf5">ModelSettings</text>
<text text-anchor="middle" x="1032" y="-1080.2" font-family="DejaVu Sans" font-size="11.00" fill="#e5ecf5">YOLO/SAM2/tracker</text>
</g>
<!-- rest -->
<g id="node11" class="node">
<title>rest</title>
<path fill="#241a0e" stroke="#3a4a63" stroke-width="1.3" d="M1513.5,-965C1513.5,-965 1138.5,-965 1138.5,-965 1132.5,-965 1126.5,-959 1126.5,-953 1126.5,-953 1126.5,-921 1126.5,-921 1126.5,-915 1132.5,-909 1138.5,-909 1138.5,-909 1513.5,-909 1513.5,-909 1519.5,-909 1525.5,-915 1525.5,-921 1525.5,-921 1525.5,-953 1525.5,-953 1525.5,-959 1519.5,-965 1513.5,-965"/>
<text text-anchor="middle" x="1326" y="-952.2" font-family="DejaVu Sans" font-size="11.00" fill="#ffcf8f">REST &#160;/api/* &#160;&#160;──▶</text>
<text text-anchor="middle" x="1326" y="-940.2" font-family="DejaVu Sans" font-size="11.00" fill="#ffcf8f">camera/{start,stop,upload} &#160;· &#160;target/{select,segment,box,pick,lock}</text>
<text text-anchor="middle" x="1326" y="-928.2" font-family="DejaVu Sans" font-size="11.00" fill="#ffcf8f">tracking/reset &#160;· &#160;reacquire/force &#160;· &#160;prompt/apply</text>
<text text-anchor="middle" x="1326" y="-916.2" font-family="DejaVu Sans" font-size="11.00" fill="#ffcf8f">config {GET, PATCH, /save}</text>
</g>
<!-- cfg_mod&#45;&gt;rest -->
<g id="edge7" class="edge">
<title>cfg_mod&#45;&gt;rest</title>
<path fill="none" stroke="#3a8f5f" stroke-width="1.2" stroke-dasharray="5,2" d="M1065.44,-1070.94C1114.3,-1046.01 1205.97,-999.24 1266.51,-968.35"/>
<polygon fill="#3a8f5f" stroke="#3a8f5f" stroke-width="1.2" points="1267.87,-970.41 1273,-965.04 1265.65,-966.04 1267.87,-970.41"/>
<text text-anchor="middle" x="1185.5" y="-1029.8" font-family="DejaVu Sans" font-size="9.00" fill="#a0e6c0">GET/PATCH config</text>
</g>
<!-- fe_ctx&#45;&gt;rest -->
<g id="edge5" class="edge">
<title>fe_ctx&#45;&gt;rest</title>
<path fill="none" stroke="#c98a2e" stroke-width="1.2" d="M708.63,-937C821.11,-937 987.6,-937 1119.35,-937"/>
<polygon fill="#c98a2e" stroke="#c98a2e" stroke-width="1.2" points="1119.39,-939.45 1126.39,-937 1119.39,-934.55 1119.39,-939.45"/>
<text text-anchor="middle" x="917.5" y="-942.8" font-family="DejaVu Sans" font-size="9.00" fill="#ffcf8f">user actions (POST/PATCH)</text>
</g>
<!-- ws -->
<g id="node10" class="node">
<title>ws</title>
<path fill="#241a0e" stroke="#3a4a63" stroke-width="1.3" d="M1849.5,-959C1849.5,-959 1562.5,-959 1562.5,-959 1556.5,-959 1550.5,-953 1550.5,-947 1550.5,-947 1550.5,-927 1550.5,-927 1550.5,-921 1556.5,-915 1562.5,-915 1562.5,-915 1849.5,-915 1849.5,-915 1855.5,-915 1861.5,-921 1861.5,-927 1861.5,-927 1861.5,-947 1861.5,-947 1861.5,-953 1855.5,-959 1849.5,-959"/>
<text text-anchor="middle" x="1706" y="-946.2" font-family="DejaVu Sans" font-size="11.00" fill="#ffcf8f">WS &#160;/ws/session &#160;&#160;◀── ~20 Hz</text>
<text text-anchor="middle" x="1706" y="-934.2" font-family="DejaVu Sans" font-size="11.00" fill="#ffcf8f">SessionSnapshot: frame(JPEG b64) · state ·</text>
<text text-anchor="middle" x="1706" y="-922.2" font-family="DejaVu Sans" font-size="11.00" fill="#ffcf8f">bboxes · mask · candidates · metrics · memory · logs</text>
</g>
<!-- ws&#45;&gt;fe_ctx -->
<g id="edge6" class="edge">
<title>ws&#45;&gt;fe_ctx</title>
<path fill="none" stroke="#c98a2e" stroke-width="1.2" d="M1669.91,-959.1C1636.93,-977.91 1586.12,-1003.5 1538,-1014 1353.46,-1054.28 1301.4,-1027.59 1113,-1014 962.99,-1003.18 790.99,-975.38 684.4,-956.32"/>
<polygon fill="#c98a2e" stroke="#c98a2e" stroke-width="1.2" points="684.8,-953.9 677.47,-955.08 683.93,-958.73 684.8,-953.9"/>
<text text-anchor="middle" x="1063" y="-1029.8" font-family="DejaVu Sans" font-size="9.00" fill="#ffcf8f">stream state mỗi frame</text>
</g>
<!-- api -->
<g id="node12" class="node">
<title>api</title>
<path fill="#241313" stroke="#3a4a63" stroke-width="1.3" d="M2155.5,-1107C2155.5,-1107 1898.5,-1107 1898.5,-1107 1892.5,-1107 1886.5,-1101 1886.5,-1095 1886.5,-1095 1886.5,-1083 1886.5,-1083 1886.5,-1077 1892.5,-1071 1898.5,-1071 1898.5,-1071 2155.5,-1071 2155.5,-1071 2161.5,-1071 2167.5,-1077 2167.5,-1083 2167.5,-1083 2167.5,-1095 2167.5,-1095 2167.5,-1101 2161.5,-1107 2155.5,-1107"/>
<text text-anchor="middle" x="2027" y="-1092.2" font-family="DejaVu Sans" font-size="11.00" fill="#ff9a9a">FastAPI router + WebSocket</text>
<text text-anchor="middle" x="2027" y="-1080.2" font-family="DejaVu Sans" font-size="11.00" fill="#ff9a9a">nhận lệnh → gọi TrackingSession → trả snapshot</text>
</g>
<!-- rest&#45;&gt;api -->
<g id="edge8" class="edge">
<title>rest&#45;&gt;api</title>
<path fill="none" stroke="#c0504d" stroke-width="1.2" d="M1386.05,-965.1C1427.86,-982.94 1485.35,-1005.41 1538,-1019 1650.69,-1048.08 1781.36,-1065.72 1879.26,-1075.88"/>
<polygon fill="#c0504d" stroke="#c0504d" stroke-width="1.2" points="1879.04,-1078.32 1886.25,-1076.6 1879.54,-1073.45 1879.04,-1078.32"/>
</g>
<!-- cluster_fsm -->
<g id="node22" class="node">
<title>cluster_fsm</title>
<ellipse fill="none" stroke="#3a4a63" stroke-width="1.3" cx="1326" cy="-811.5" rx="48.21" ry="18"/>
<text text-anchor="middle" x="1326" y="-808.7" font-family="DejaVu Sans" font-size="11.00" fill="#e5ecf5">cluster_fsm</text>
</g>
<!-- rest&#45;&gt;cluster_fsm -->
<!-- api&#45;&gt;ws -->
<g id="edge9" class="edge">
<title>api&#45;&gt;ws</title>
<path fill="none" stroke="#c0504d" stroke-width="1.2" stroke-dasharray="5,2" d="M1990.49,-1070.94C1933.38,-1044.25 1822.71,-992.54 1757.51,-962.07"/>
<polygon fill="#c0504d" stroke="#c0504d" stroke-width="1.2" points="1758.34,-959.75 1750.96,-959.01 1756.26,-964.19 1758.34,-959.75"/>
<text text-anchor="middle" x="1938.5" y="-1029.8" font-family="DejaVu Sans" font-size="9.00" fill="#ff9a9a">snapshot()</text>
</g>
<!-- cam -->
<g id="node13" class="node">
<title>cam</title>
<path fill="#13243b" stroke="#3a4a63" stroke-width="1.3" d="M2100.5,-959C2100.5,-959 1921.5,-959 1921.5,-959 1915.5,-959 1909.5,-953 1909.5,-947 1909.5,-947 1909.5,-927 1909.5,-927 1909.5,-921 1915.5,-915 1921.5,-915 1921.5,-915 2100.5,-915 2100.5,-915 2106.5,-915 2112.5,-921 2112.5,-927 2112.5,-927 2112.5,-947 2112.5,-947 2112.5,-953 2106.5,-959 2100.5,-959"/>
<text text-anchor="middle" x="2011" y="-946.2" font-family="DejaVu Sans" font-size="11.00" fill="#e5ecf5">vision/camera.py · CameraSource</text>
<text text-anchor="middle" x="2011" y="-934.2" font-family="DejaVu Sans" font-size="11.00" fill="#e5ecf5">thread _reader() đọc MJPG/file →</text>
<text text-anchor="middle" x="2011" y="-922.2" font-family="DejaVu Sans" font-size="11.00" fill="#e5ecf5">giữ frame mới nhất (không dồn)</text>
</g>
<!-- api&#45;&gt;cam -->
<g id="edge10" class="edge">
<title>api&#45;&gt;cam</title>
<path fill="none" stroke="#5b7089" stroke-width="1.2" d="M2025.16,-1070.79C2022.44,-1045.22 2017.28,-996.89 2014,-966.13"/>
<polygon fill="#5b7089" stroke="#5b7089" stroke-width="1.2" points="2016.43,-965.79 2013.25,-959.09 2011.56,-966.31 2016.43,-965.79"/>
<text text-anchor="middle" x="2061.5" y="-1029.8" font-family="DejaVu Sans" font-size="9.00" fill="#9fb3c8">start/stop camera</text>
</g>
<!-- disp -->
<g id="node14" class="node">
<title>disp</title>
<polygon fill="#1b2740" stroke="#3a4a63" stroke-width="1.3" points="2001,-851 1903.6,-811.5 2001,-772 2098.4,-811.5 2001,-851"/>
<text text-anchor="middle" x="2001" y="-814.7" font-family="DejaVu Sans" font-size="11.00" fill="#cfe3ff">_dispatch_frame()</text>
<text text-anchor="middle" x="2001" y="-802.7" font-family="DejaVu Sans" font-size="11.00" fill="#cfe3ff">rẽ nhánh theo state</text>
</g>
<!-- cam&#45;&gt;disp -->
<g id="edge11" class="edge">
<title>cam&#45;&gt;disp</title>
<path fill="none" stroke="#5b7089" stroke-width="1.2" d="M2009.28,-914.77C2008,-898.92 2006.2,-876.7 2004.6,-857.02"/>
<polygon fill="#5b7089" stroke="#5b7089" stroke-width="1.2" points="2007.04,-856.68 2004.03,-849.9 2002.15,-857.07 2007.04,-856.68"/>
<text text-anchor="middle" x="2029" y="-877.8" font-family="DejaVu Sans" font-size="9.00" fill="#9fb3c8">frame mới</text>
</g>
<!-- s_ready -->
<g id="node15" class="node">
<title>s_ready</title>
<path fill="#16314f" stroke="#3a4a63" stroke-width="1.3" d="M1705,-676C1705,-676 1625,-676 1625,-676 1619,-676 1613,-670 1613,-664 1613,-664 1613,-652 1613,-652 1613,-646 1619,-640 1625,-640 1625,-640 1705,-640 1705,-640 1711,-640 1717,-646 1717,-652 1717,-652 1717,-664 1717,-664 1717,-670 1711,-676 1705,-676"/>
<text text-anchor="middle" x="1665" y="-655.2" font-family="DejaVu Sans" font-size="11.00" fill="#bfe0ff">CAMERA_READY</text>
</g>
<!-- disp&#45;&gt;s_ready -->
<g id="edge24" class="edge">
<title>disp&#45;&gt;s_ready</title>
<path fill="none" stroke="#5b7089" stroke-width="1.2" d="M1897.87,-764C1856.45,-745.32 1808.8,-723.84 1767.44,-705.19"/>
<polygon fill="#5b7089" stroke="#5b7089" stroke-width="1.2" points="1768.39,-702.93 1761,-702.29 1766.37,-707.4 1768.39,-702.93"/>
<text text-anchor="middle" x="1894.5" y="-740.8" font-family="DejaVu Sans" font-size="9.00" fill="#9fb3c8">theo state hiện tại</text>
</g>
<!-- s_cand -->
<g id="node16" class="node">
<title>s_cand</title>
<path fill="#16314f" stroke="#3a4a63" stroke-width="1.3" d="M1710,-582C1710,-582 1566,-582 1566,-582 1560,-582 1554,-576 1554,-570 1554,-570 1554,-550 1554,-550 1554,-544 1560,-538 1566,-538 1566,-538 1710,-538 1710,-538 1716,-538 1722,-544 1722,-550 1722,-550 1722,-570 1722,-570 1722,-576 1716,-582 1710,-582"/>
<text text-anchor="middle" x="1638" y="-569.2" font-family="DejaVu Sans" font-size="11.00" fill="#e5ecf5">CANDIDATE_TRACKING</text>
<text text-anchor="middle" x="1638" y="-557.2" font-family="DejaVu Sans" font-size="11.00" fill="#e5ecf5">YOLO detect + mini&#45;tracker</text>
<text text-anchor="middle" x="1638" y="-545.2" font-family="DejaVu Sans" font-size="11.00" fill="#e5ecf5">(_update_candidates)</text>
</g>
<!-- s_ready&#45;&gt;s_cand -->
<g id="edge12" class="edge">
<title>s_ready&#45;&gt;s_cand</title>
<path fill="none" stroke="#5b7089" stroke-width="1.2" d="M1660.17,-639.84C1656.19,-625.68 1650.46,-605.32 1645.83,-588.83"/>
<polygon fill="#5b7089" stroke="#5b7089" stroke-width="1.2" points="1648.17,-588.11 1643.92,-582.03 1643.45,-589.44 1648.17,-588.11"/>
<text text-anchor="middle" x="1703.5" y="-608.8" font-family="DejaVu Sans" font-size="9.00" fill="#9fb3c8">select / segment / box</text>
</g>
<!-- s_learn -->
<g id="node17" class="node">
<title>s_learn</title>
<path fill="#173b2a" stroke="#3a4a63" stroke-width="1.3" d="M1594.5,-480C1594.5,-480 1463.5,-480 1463.5,-480 1457.5,-480 1451.5,-474 1451.5,-468 1451.5,-468 1451.5,-448 1451.5,-448 1451.5,-442 1457.5,-436 1463.5,-436 1463.5,-436 1594.5,-436 1594.5,-436 1600.5,-436 1606.5,-442 1606.5,-448 1606.5,-448 1606.5,-468 1606.5,-468 1606.5,-474 1600.5,-480 1594.5,-480"/>
<text text-anchor="middle" x="1529" y="-467.2" font-family="DejaVu Sans" font-size="11.00" fill="#a8efc6">LEARNING_TARGET</text>
<text text-anchor="middle" x="1529" y="-455.2" font-family="DejaVu Sans" font-size="11.00" fill="#a8efc6">thu mẫu đặc trưng ~2.5s</text>
<text text-anchor="middle" x="1529" y="-443.2" font-family="DejaVu Sans" font-size="11.00" fill="#a8efc6">(_update_learning)</text>
</g>
<!-- s_cand&#45;&gt;s_learn -->
<g id="edge13" class="edge">
<title>s_cand&#45;&gt;s_learn</title>
<path fill="none" stroke="#5b7089" stroke-width="1.2" d="M1554.62,-537.87C1544.13,-531.81 1534.73,-524.02 1528,-514 1522.83,-506.3 1521.73,-496.54 1522.35,-487.38"/>
<polygon fill="#5b7089" stroke="#5b7089" stroke-width="1.2" points="1524.81,-487.45 1523.17,-480.21 1519.94,-486.89 1524.81,-487.45"/>
<text text-anchor="middle" x="1567.5" y="-506.8" font-family="DejaVu Sans" font-size="9.00" fill="#9fb3c8">pick_target / lock</text>
</g>
<!-- s_cand&#45;&gt;s_learn -->
<g id="edge14" class="edge">
<title>s_cand&#45;&gt;s_learn</title>
<path fill="none" stroke="#5b7089" stroke-width="1.2" stroke-dasharray="5,2" d="M1630.27,-537.86C1625.43,-526.8 1618.34,-513.59 1609,-504 1601.52,-496.32 1592.45,-489.57 1583.14,-483.79"/>
<polygon fill="#5b7089" stroke="#5b7089" stroke-width="1.2" points="1584.27,-481.61 1577,-480.13 1581.76,-485.82 1584.27,-481.61"/>
<text text-anchor="middle" x="1663" y="-506.8" font-family="DejaVu Sans" font-size="9.00" fill="#9fb3c8">select_box (kéo box)</text>
</g>
<!-- s_learn&#45;&gt;s_lock -->
<g id="edge15" class="edge">
<title>s_learn&#45;&gt;s_lock</title>
<path fill="none" stroke="#5b7089" stroke-width="1.2" d="M1527.46,-435.79C1526.21,-418.6 1524.43,-394.2 1523.06,-375.34"/>
<polygon fill="#5b7089" stroke="#5b7089" stroke-width="1.2" points="1525.49,-374.95 1522.54,-368.14 1520.6,-375.3 1525.49,-374.95"/>
<text text-anchor="middle" x="1594" y="-404.8" font-family="DejaVu Sans" font-size="9.00" fill="#9fb3c8">đủ thời gian + ≥ min_samples</text>
<text text-anchor="middle" x="1594" y="-394.8" font-family="DejaVu Sans" font-size="9.00" fill="#9fb3c8">_finalize_lock()</text>
</g>
<!-- s_lock&#45;&gt;s_lock -->
<g id="edge16" class="edge">
<title>s_lock&#45;&gt;s_lock</title>
<path fill="none" stroke="#3a8f7f" stroke-width="1.2" d="M1608.73,-354.71C1623.39,-353.49 1633.5,-350.59 1633.5,-346 1633.5,-342.2 1626.57,-339.55 1615.86,-338.06"/>
<polygon fill="#3a8f7f" stroke="#3a8f7f" stroke-width="1.2" points="1615.96,-335.61 1608.73,-337.29 1615.43,-340.48 1615.96,-335.61"/>
<text text-anchor="middle" x="1689.5" y="-343.8" font-family="DejaVu Sans" font-size="9.00" fill="#9fb3c8">score ≥ stable_threshold</text>
</g>
<!-- s_unc -->
<g id="node19" class="node">
<title>s_unc</title>
<path fill="#3d3410" stroke="#3a4a63" stroke-width="1.3" d="M1683.5,-266C1683.5,-266 1574.5,-266 1574.5,-266 1568.5,-266 1562.5,-260 1562.5,-254 1562.5,-254 1562.5,-234 1562.5,-234 1562.5,-228 1568.5,-222 1574.5,-222 1574.5,-222 1683.5,-222 1683.5,-222 1689.5,-222 1695.5,-228 1695.5,-234 1695.5,-234 1695.5,-254 1695.5,-254 1695.5,-260 1689.5,-266 1683.5,-266"/>
<text text-anchor="middle" x="1629" y="-253.2" font-family="DejaVu Sans" font-size="11.00" fill="#ffe08a">UNCERTAIN / REFIND</text>
<text text-anchor="middle" x="1629" y="-241.2" font-family="DejaVu Sans" font-size="11.00" fill="#ffe08a">Tier B — EVPTrack</text>
<text text-anchor="middle" x="1629" y="-229.2" font-family="DejaVu Sans" font-size="11.00" fill="#ffe08a">(memory đóng băng)</text>
</g>
<!-- s_lock&#45;&gt;s_unc -->
<g id="edge17" class="edge">
<title>s_lock&#45;&gt;s_unc</title>
<path fill="none" stroke="#b59a3a" stroke-width="1.2" d="M1498.1,-323.87C1489.45,-313.31 1483.33,-300.56 1491,-290 1495.35,-284 1524.83,-274.02 1555.43,-264.98"/>
<polygon fill="#b59a3a" stroke="#b59a3a" stroke-width="1.2" points="1556.35,-267.26 1562.38,-262.94 1554.97,-262.56 1556.35,-267.26"/>
<text text-anchor="middle" x="1552" y="-292.8" font-family="DejaVu Sans" font-size="9.00" fill="#9fb3c8">uncertain ≤ score &lt; stable</text>
</g>
<!-- s_lost -->
<g id="node20" class="node">
<title>s_lost</title>
<path fill="#42171a" stroke="#3a4a63" stroke-width="1.3" d="M1527.5,-154C1527.5,-154 1432.5,-154 1432.5,-154 1426.5,-154 1420.5,-148 1420.5,-142 1420.5,-142 1420.5,-122 1420.5,-122 1420.5,-116 1426.5,-110 1432.5,-110 1432.5,-110 1527.5,-110 1527.5,-110 1533.5,-110 1539.5,-116 1539.5,-122 1539.5,-122 1539.5,-142 1539.5,-142 1539.5,-148 1533.5,-154 1527.5,-154"/>
<text text-anchor="middle" x="1480" y="-141.2" font-family="DejaVu Sans" font-size="11.00" fill="#ff9aa2">LOST / SEARCHING</text>
<text text-anchor="middle" x="1480" y="-129.2" font-family="DejaVu Sans" font-size="11.00" fill="#ff9aa2">Tier C — re&#45;detect</text>
<text text-anchor="middle" x="1480" y="-117.2" font-family="DejaVu Sans" font-size="11.00" fill="#ff9aa2">(_run_reacquire)</text>
</g>
<!-- s_lock&#45;&gt;s_lost -->
<g id="edge20" class="edge">
<title>s_lock&#45;&gt;s_lost</title>
<path fill="none" stroke="#c0504d" stroke-width="1.2" d="M1499.35,-323.83C1492.85,-316.7 1486.1,-308.4 1481,-300 1472.6,-286.17 1470.94,-281.91 1468,-266 1461.39,-230.21 1467.4,-188.31 1473.04,-161.24"/>
<polygon fill="#c0504d" stroke="#c0504d" stroke-width="1.2" points="1475.44,-161.72 1474.53,-154.36 1470.65,-160.68 1475.44,-161.72"/>
<text text-anchor="middle" x="1509" y="-241.8" font-family="DejaVu Sans" font-size="9.00" fill="#9fb3c8">score &lt; uncertain</text>
</g>
<!-- s_unc&#45;&gt;s_lock -->
<g id="edge18" class="edge">
<title>s_unc&#45;&gt;s_lock</title>
<path fill="none" stroke="#3a8f7f" stroke-width="1.2" d="M1627.85,-266.25C1626.27,-277.35 1622.75,-290.55 1615,-300 1608.48,-307.96 1600.21,-314.6 1591.3,-320.12"/>
<polygon fill="#3a8f7f" stroke="#3a8f7f" stroke-width="1.2" points="1589.86,-318.12 1585.04,-323.76 1592.32,-322.36 1589.86,-318.12"/>
<text text-anchor="middle" x="1653.5" y="-292.8" font-family="DejaVu Sans" font-size="9.00" fill="#9fb3c8">score phục hồi</text>
</g>
<!-- s_unc&#45;&gt;s_lost -->
<g id="edge19" class="edge">
<title>s_unc&#45;&gt;s_lost</title>
<path fill="none" stroke="#c0504d" stroke-width="1.2" d="M1600.27,-221.79C1575.74,-203.68 1540.4,-177.59 1514.38,-158.38"/>
<polygon fill="#c0504d" stroke="#c0504d" stroke-width="1.2" points="1515.73,-156.33 1508.64,-154.14 1512.82,-160.27 1515.73,-156.33"/>
<text text-anchor="middle" x="1612.5" y="-190.8" font-family="DejaVu Sans" font-size="9.00" fill="#9fb3c8">lost_frames /</text>
<text text-anchor="middle" x="1612.5" y="-180.8" font-family="DejaVu Sans" font-size="9.00" fill="#9fb3c8">identity_lost_frames</text>
</g>
<!-- s_lost&#45;&gt;s_lost -->
<g id="edge23" class="edge">
<title>s_lost&#45;&gt;s_lost</title>
<path fill="none" stroke="#7a3030" stroke-width="1.2" d="M1539.62,-141.21C1553.91,-140.49 1564.5,-137.42 1564.5,-132 1564.5,-127.51 1557.24,-124.63 1546.62,-123.37"/>
<polygon fill="#7a3030" stroke="#7a3030" stroke-width="1.2" points="1546.79,-120.93 1539.62,-122.79 1546.39,-125.81 1546.79,-120.93"/>
<text text-anchor="middle" x="1640.5" y="-129.8" font-family="DejaVu Sans" font-size="9.00" fill="#9fb3c8">detect_hz (3→1 Hz theo lost_age)</text>
</g>
<!-- s_reacq -->
<g id="node21" class="node">
<title>s_reacq</title>
<path fill="#16314f" stroke="#3a4a63" stroke-width="1.3" d="M1644,-52C1644,-52 1492,-52 1492,-52 1486,-52 1480,-46 1480,-40 1480,-40 1480,-28 1480,-28 1480,-22 1486,-16 1492,-16 1492,-16 1644,-16 1644,-16 1650,-16 1656,-22 1656,-28 1656,-28 1656,-40 1656,-40 1656,-46 1650,-52 1644,-52"/>
<text text-anchor="middle" x="1568" y="-37.2" font-family="DejaVu Sans" font-size="11.00" fill="#bfe0ff">REACQUIRED</text>
<text text-anchor="middle" x="1568" y="-25.2" font-family="DejaVu Sans" font-size="11.00" fill="#bfe0ff">xác nhận ≥ N frame liên tiếp</text>
</g>
<!-- s_lost&#45;&gt;s_reacq -->
<g id="edge21" class="edge">
<title>s_lost&#45;&gt;s_reacq</title>
<path fill="none" stroke="#5b7089" stroke-width="1.2" d="M1499.53,-109.69C1513.69,-94.25 1532.81,-73.39 1547.25,-57.64"/>
<polygon fill="#5b7089" stroke="#5b7089" stroke-width="1.2" points="1549.41,-58.91 1552.33,-52.09 1545.8,-55.59 1549.41,-58.91"/>
<text text-anchor="middle" x="1580" y="-78.8" font-family="DejaVu Sans" font-size="9.00" fill="#9fb3c8">ConfirmationBuffer OK</text>
</g>
<!-- s_reacq&#45;&gt;s_lock -->
<g id="edge22" class="edge">
<title>s_reacq&#45;&gt;s_lock</title>
<path fill="none" stroke="#5b7089" stroke-width="1.2" d="M1640.99,-52.1C1671.52,-63.24 1704.03,-81.26 1722,-110 1758.91,-169.02 1726.56,-198.91 1708,-266 1703.6,-281.92 1705.57,-289.29 1693,-300 1671.34,-318.45 1642.97,-329.45 1615.54,-335.97"/>
<polygon fill="#5b7089" stroke="#5b7089" stroke-width="1.2" points="1614.89,-333.61 1608.59,-337.53 1615.96,-338.39 1614.89,-333.61"/>
<text text-anchor="middle" x="1752.5" y="-185.8" font-family="DejaVu Sans" font-size="9.00" fill="#9fb3c8">re&#45;lock</text>
</g>
</g>
</svg>
